# xmcd CD database file
#
# Track frame offsets:
#	150
#	14920
#	33909
#	48146
#	62596
#	83690
#	99331
#	112821
#	130832
#	144017
#	162192
#
# Disc length: 2500 seconds
#
# Revision: 0
# Processed by: cddbd v1.5.2PL0 Copyright (c) Steve Scherf et al.
# Submitted via: CDex 1.51
#
DISCID=7c09c20b
DTITLE=Jared Deck - Jared Deck
DYEAR=2016
DGENRE=Country
TTITLE0=17 Miles
TTITLE1=Grace
TTITLE2=Wrong Side Of The Night
TTITLE3=The American Dream
TTITLE4=Fight
TTITLE5=Sweet Breath
TTITLE6=Hope, KS
TTITLE7=Wait For You
TTITLE8=Hell On Wheels
TTITLE9=Unusually Blessed
TTITLE10=Jared Deck - Song You Can Use
EXTD=YEAR: 2016
EXTT0=
EXTT1=
EXTT2=
EXTT3=
EXTT4=
EXTT5=
EXTT6=
EXTT7=
EXTT8=
EXTT9=
EXTT10=
PLAYORDER=
